<svg id="Calque_1" data-name="Calque 1" xmlns="http://www.w3.org/2000/svg" xmlns:xlink="http://www.w3.org/1999/xlink" viewBox="0 0 1440 824"><defs><style>.cls-1,.cls-4{fill:none;}.cls-2,.cls-6{fill:#fff;}.cls-3{fill:#f5e9bd;}.cls-13,.cls-4,.cls-9{stroke:#e8bad7;}.cls-13,.cls-15,.cls-16,.cls-17,.cls-18,.cls-19,.cls-4,.cls-5,.cls-9{stroke-miterlimit:10;}.cls-13,.cls-4,.cls-5{stroke-width:2px;}.cls-11,.cls-5{fill:#dae1f2;}.cls-5{stroke:#dae1f2;}.cls-6{font-size:137.43px;font-family:PlayfairDisplay-Bold, Playfair Display;font-weight:700;}.cls-7{letter-spacing:-0.01em;}.cls-8{letter-spacing:-0.07em;}.cls-13,.cls-9{fill:#e8bad7;}.cls-10{fill:#fdfeff;}.cls-12{fill:url(#Nouvelle_nuance_de_motif_1);}.cls-14{fill:#fcfcf3;stroke:#fcfcf3;stroke-linejoin:round;stroke-width:1.4px;}.cls-14,.cls-15,.cls-16,.cls-17,.cls-18,.cls-19{stroke-linecap:round;}.cls-15,.cls-16,.cls-17,.cls-18,.cls-19{stroke:#5764a7;}.cls-15{fill:url(#Dégradé_sans_nom_17);}.cls-16{fill:url(#Dégradé_sans_nom_17-2);}.cls-17{fill:url(#Dégradé_sans_nom_17-3);}.cls-18{fill:url(#Dégradé_sans_nom_17-4);}.cls-19{fill:url(#Dégradé_sans_nom_17-5);}</style><pattern id="Nouvelle_nuance_de_motif_1" data-name="Nouvelle nuance de motif 1" width="7.17" height="7.17" patternUnits="userSpaceOnUse" viewBox="0 0 7.17 7.17"><rect class="cls-1" width="7.17" height="7.17"/><circle class="cls-2" cx="3.59" cy="3.59" r="0.58"/></pattern><linearGradient id="Dégradé_sans_nom_17" x1="752.33" y1="524.87" x2="789.06" y2="524.87" gradientUnits="userSpaceOnUse"><stop offset="0.81" stop-color="#fff"/><stop offset="0.82" stop-color="#fffef8" stop-opacity="0.86"/><stop offset="0.83" stop-color="#fffdef" stop-opacity="0.68"/><stop offset="0.84" stop-color="#fffce7" stop-opacity="0.52"/><stop offset="0.86" stop-color="#fefbdf" stop-opacity="0.38"/><stop offset="0.87" stop-color="#fefad9" stop-opacity="0.26"/><stop offset="0.89" stop-color="#fef9d4" stop-opacity="0.17"/><stop offset="0.9" stop-color="#fef9d1" stop-opacity="0.09"/><stop offset="0.92" stop-color="#fef8ce" stop-opacity="0.04"/><stop offset="0.95" stop-color="#fef8cc" stop-opacity="0.01"/><stop offset="1" stop-color="#fef8cc" stop-opacity="0"/></linearGradient><linearGradient id="Dégradé_sans_nom_17-2" x1="752.33" y1="533.07" x2="803.95" y2="533.07" xlink:href="#Dégradé_sans_nom_17"/><linearGradient id="Dégradé_sans_nom_17-3" x1="725.97" y1="547.71" x2="863.5" y2="547.71" xlink:href="#Dégradé_sans_nom_17"/><linearGradient id="Dégradé_sans_nom_17-4" x1="725.97" y1="556.99" x2="863.5" y2="556.99" xlink:href="#Dégradé_sans_nom_17"/><linearGradient id="Dégradé_sans_nom_17-5" x1="725.97" y1="566.27" x2="863.5" y2="566.27" xlink:href="#Dégradé_sans_nom_17"/></defs><title>Plan de travail 1</title><rect class="cls-3" x="3.61" y="-104.09" width="1446.29" height="1022.63"/><path class="cls-4" d="M509.68,319.31C542,283.45,625,241.23,697.41,273.91S747.72,399,708.88,403.33,405.73,434.55,509.68,319.31Z"/><path class="cls-5" d="M385,346.47c-48.5,42-162.67,233.5,101.17,235.87S791.8,466.76,763.84,426.88,488.09,257.18,385,346.47Z"/><text class="cls-6" transform="translate(105.42 460.32)">C<tspan class="cls-7" x="96.89" y="0">O</tspan><tspan x="204.77" y="0">MMUN</tspan><tspan class="cls-7" x="653.48" y="0">I</tspan><tspan x="704.06" y="0">C</tspan><tspan class="cls-8" x="800.95" y="0">A</tspan><tspan x="883.27" y="0">T</tspan><tspan class="cls-7" x="975.07" y="0">IO</tspan><tspan x="1133.53" y="0">N</tspan></text><circle class="cls-9" cx="967.28" cy="261.02" r="24.44"/><path class="cls-10" d="M966.06,247.38c-2.75,2.37-2.39,6.13-2.16,8.4-2.22-.56-5.88-1.47-8.63.9-7.26,6.25-.4,11.32,2.23,12.17,3.92,1.27,15.11,1.42,18.38,1.44h.52l.07-.51c.47-3.24,2-14.33,1.3-18.39C977.32,248.66,973.33,241.12,966.06,247.38Z"/><circle class="cls-5" cx="1021.27" cy="307.66" r="20.04"/><path class="cls-2" d="M1018.68,320.11h0a2.65,2.65,0,0,1-3.72-.24l-4.24-5.65a2.65,2.65,0,0,1,.8-3.64h0a2.65,2.65,0,0,1,3.72.24l4.24,5.65A2.65,2.65,0,0,1,1018.68,320.11Z"/><path class="cls-2" d="M1015.35,308.61l5.48,6.93a2.42,2.42,0,0,0,3.35.43l10.57-8s1.11-2.32-1.37-2.67c0,0,.23-1.91-.15-2.41a1.63,1.63,0,0,0-1.65-.66s1.1-2-.31-3.18c0,0-.17-.43-1.65-.23,0,0,.86-2.18-.67-3a2.3,2.3,0,0,0-2.64.31l-6,4.52s.16-4.65-2.74-6.95a2.84,2.84,0,0,0-4,.71s-.4.94,1.33,3.32a1.71,1.71,0,0,1,.3,1.48,24.57,24.57,0,0,0-.32,8A2.46,2.46,0,0,0,1015.35,308.61Z"/><path class="cls-2" d="M1057.34,227.19a18.79,18.79,0,0,0-34.6,14.49c1.87,5.29,10.29,11,10.15,10.94l2.44,5.06a.58.58,0,0,0,.89.19l4.47-3.66a33.2,33.2,0,0,0,6-1.08A18.79,18.79,0,0,0,1057.34,227.19Zm-9.73,10.88a3.22,3.22,0,0,1-4.37,1.7l-4.63-1.47a1.76,1.76,0,0,0-1.7.91l-3.74,5.9a1.61,1.61,0,0,1-1.1.39c-.36-.06-1.1-.26-.45-3l1.71-8.14s1.1-3.26,4-2.43l4.89,1.3s1.26.72,2.41-1.09l3.54-5.36s1.11-1.25,1.6.13Z"/><circle class="cls-11" cx="1050.45" cy="218.46" r="4.99"/><path class="cls-12" d="M345.32,573.21c-9.13-40.68-1.47-88.52,158.62-51.54s-26.58,105.66-114.45,84.89C376,603.37,352.08,603.29,345.32,573.21Z"/><rect class="cls-13" x="710.01" y="507.99" width="175.77" height="73.49" rx="2.83"/><rect class="cls-14" x="712.33" y="505.67" width="175.77" height="73.49" rx="2.83"/><circle class="cls-5" cx="732.55" cy="525.32" r="11.52"/><line class="cls-15" x1="752.33" y1="524.87" x2="789.06" y2="524.87"/><line class="cls-16" x1="752.33" y1="533.07" x2="803.95" y2="533.07"/><line class="cls-17" x1="725.97" y1="547.71" x2="863.5" y2="547.71"/><line class="cls-18" x1="725.97" y1="556.99" x2="863.5" y2="556.99"/><line class="cls-19" x1="725.97" y1="566.27" x2="863.5" y2="566.27"/><polygon class="cls-14" points="726.6 494.51 734.44 504.46 725.97 504.46 726.6 494.51"/></svg>