<svg id="Calque_1" data-name="Calque 1" xmlns="http://www.w3.org/2000/svg" xmlns:xlink="http://www.w3.org/1999/xlink" viewBox="0 0 1440 824"><defs><style>.cls-1,.cls-4{fill:none;}.cls-11,.cls-2,.cls-6{fill:#fff;}.cls-12,.cls-3{fill:#fce8e9;}.cls-11,.cls-4{stroke:#fff;stroke-miterlimit:10;}.cls-5{fill:#5662aa;}.cls-6{font-size:153.65px;font-family:PlayfairDisplay-Bold, Playfair Display;font-weight:700;}.cls-7{letter-spacing:-0.01em;}.cls-8{letter-spacing:-0.01em;}.cls-9{letter-spacing:0em;}.cls-10{letter-spacing:-0.02em;}.cls-11{stroke-width:2px;}.cls-12{stroke:#5662aa;stroke-linecap:round;stroke-linejoin:round;}.cls-13{fill:url(#Nouvelle_nuance_de_motif_1);}</style><pattern id="Nouvelle_nuance_de_motif_1" data-name="Nouvelle nuance de motif 1" width="7.17" height="7.17" patternUnits="userSpaceOnUse" viewBox="0 0 7.17 7.17"><rect class="cls-1" width="7.17" height="7.17"/><circle class="cls-2" cx="3.59" cy="3.59" r="0.58"/></pattern></defs><title>Plan de travail 1</title><rect class="cls-3" x="2.67" y="-95.2" width="1437.33" height="1016.29"/><path class="cls-4" d="M751.71,510.94s38.74,3.86,36.36,37.62-98.54,77.22-139.29,66.18-49-93.43-10.17-102.79S751.71,510.94,751.71,510.94Z"/><path class="cls-5" d="M593.77,359s-86.18,46.94-72.92,115.52,119.83,116.9,196.07,64.06c54.64-37.88,146.54-133.42,96.57-169.83S692.23,302.9,593.77,359Z"/><text class="cls-6" transform="translate(340.95 463.75)">C<tspan class="cls-7" x="108.32" y="0">O</tspan><tspan class="cls-8" x="228.94" y="0">N</tspan><tspan class="cls-9" x="338.8" y="0">CEP</tspan><tspan class="cls-10" x="643.03" y="0">T</tspan></text><rect class="cls-11" x="859.51" y="249.67" width="146.75" height="55.87" rx="8.5"/><circle class="cls-5" cx="898.99" cy="277.72" r="7.18"/><circle class="cls-5" cx="933.42" cy="277.72" r="7.18"/><circle class="cls-5" cx="967.84" cy="277.72" r="7.18"/><path class="cls-2" d="M902,306.73l-11.27,12.4a2.79,2.79,0,0,1-4.86-1.87V306.73H902Z"/><rect class="cls-11" x="304.65" y="546.73" width="192.74" height="55.87" rx="8.5"/><path class="cls-2" d="M465.87,545.41,477.14,533a2.79,2.79,0,0,1,4.85,1.88v10.52H465.87Z"/><line class="cls-12" x1="318.91" y1="569.11" x2="446.42" y2="569.11"/><line class="cls-12" x1="318.91" y1="578.66" x2="473.93" y2="578.66"/><line class="cls-12" x1="318.91" y1="589.12" x2="486.06" y2="589.12"/><line class="cls-12" x1="318.91" y1="559.6" x2="409.83" y2="559.6"/><path class="cls-13" d="M552.45,382.51s-44-2.91-62.48,21.81-8,131.51,38.34,114.74,113.54-61.42,92.34-89.23S594.06,387.82,552.45,382.51Z"/></svg>