<svg id="Calque_1" data-name="Calque 1" xmlns="http://www.w3.org/2000/svg" xmlns:xlink="http://www.w3.org/1999/xlink" viewBox="0 0 1440 824"><defs><style>.cls-1,.cls-11,.cls-4,.cls-9{fill:none;}.cls-2,.cls-6{fill:#fff;}.cls-3{fill:#c1e1da;}.cls-4,.cls-9{stroke:#fff;}.cls-4{stroke-miterlimit:10;}.cls-5{fill:#5562ab;}.cls-11,.cls-5{stroke:#5662aa;}.cls-11,.cls-5,.cls-9{stroke-linecap:round;stroke-linejoin:round;}.cls-5,.cls-9{stroke-width:0.75px;}.cls-6{font-size:154.48px;font-family:PlayfairDisplay-Bold, Playfair Display;font-weight:700;}.cls-7{letter-spacing:-0.01em;}.cls-8{letter-spacing:-0.01em;}.cls-10{fill:url(#Nouvelle_nuance_de_motif_1);}</style><pattern id="Nouvelle_nuance_de_motif_1" data-name="Nouvelle nuance de motif 1" width="7.17" height="7.17" patternUnits="userSpaceOnUse" viewBox="0 0 7.17 7.17"><rect class="cls-1" width="7.17" height="7.17"/><circle class="cls-2" cx="3.59" cy="3.59" r="0.58"/></pattern></defs><title>Plan de travail 1</title><rect class="cls-3" x="-3.87" y="-99.83" width="1445.03" height="1021.74"/><path class="cls-4" d="M725.33,492.46s45.82-119.3-62.28-68.2-97.78,98.31-77,105.64C615.79,540.44,682,546.35,725.33,492.46Z"/><path class="cls-5" d="M703.23,529.64S570,473.34,615,411s110.69-74.89,171-74.91c126.9,0,211.5,133.2,186.3,166.5S782.43,562,703.23,529.64Z"/><text class="cls-6" transform="translate(421.15 462.12)"><tspan class="cls-7">D</tspan><tspan x="118.48" y="0">ES</tspan><tspan class="cls-8" x="306.63" y="0">I</tspan><tspan x="363.48" y="0">GN</tspan></text><path class="cls-2" d="M468.23,277l7.42-7.94,30.83,29.34a9.72,9.72,0,0,1,1.16,2.71,6.18,6.18,0,0,1,2.19,1.32c2.14,2,2.55,5,.9,6.81s-4.71,1.57-6.85-.43a6.09,6.09,0,0,1-1.46-2.1,9.68,9.68,0,0,1-2.79-1Z"/><path class="cls-5" d="M456,258.14c2.95-3.17,8.47-2.83,12.32.76a10.32,10.32,0,0,1,3.38,7.16c2-1.2,3.68-1.57,4.51-.79,1.37,1.27-.15,5.11-3.39,8.58s-7,5.24-8.32,4c-.84-.78-.58-2.52.48-4.55a10.34,10.34,0,0,1-7.37-2.89C453.76,266.79,453,261.31,456,258.14Z"/><path class="cls-5" d="M418.86,623l41.52-59.5-.13-9-8.48,3L410.25,617a1.12,1.12,0,0,0,.28,1.55l6.79,4.73A1.11,1.11,0,0,0,418.86,623Z"/><path class="cls-9" d="M520,504.84s-12.1,20.26,2.36,26.77c10.83,4.88,0-29.45-29.18-12-24.17,14.43-.92,30.83,5,28s-5.17-21.52-25.76-7.44"/><path class="cls-10" d="M844.85,276.61c-23.6,5.14-84.51,33.46-50.12,82.58s93.3,15.56,109-1.94C909.32,351,974.55,248.38,844.85,276.61Z"/><line class="cls-4" x1="1051.38" y1="211.23" x2="1096.05" y2="323.68"/><polygon class="cls-11" points="928.02 249.56 1004.77 246.01 1008.32 322.76 928.02 249.56"/><circle class="cls-11" cx="1063.96" cy="383.59" r="26.69"/></svg>