<svg id="Calque_1" data-name="Calque 1" xmlns="http://www.w3.org/2000/svg" xmlns:xlink="http://www.w3.org/1999/xlink" viewBox="0 0 1440 823.98"><defs><style>.cls-1,.cls-12,.cls-13,.cls-14,.cls-4{fill:none;}.cls-2,.cls-6{fill:#fff;}.cls-3{fill:#f1dfd0;}.cls-12,.cls-4{stroke:#fff;}.cls-4{stroke-miterlimit:10;}.cls-5{fill:#8883b0;}.cls-6{font-size:136.99px;font-family:PlayfairDisplay-Bold, Playfair Display;font-weight:700;}.cls-7{letter-spacing:-0.01em;}.cls-8{letter-spacing:-0.01em;}.cls-9{letter-spacing:-0.01em;}.cls-10{letter-spacing:0em;}.cls-11{letter-spacing:-0.02em;}.cls-12,.cls-13,.cls-14,.cls-15{stroke-linecap:round;stroke-linejoin:round;}.cls-13,.cls-14,.cls-15{stroke:#8883b0;}.cls-14{stroke-width:2px;}.cls-15{fill:#f5f5fb;stroke-width:0.75px;}.cls-16{fill:url(#Nouvelle_nuance_de_motif_1);}</style><pattern id="Nouvelle_nuance_de_motif_1" data-name="Nouvelle nuance de motif 1" width="7.17" height="7.17" patternUnits="userSpaceOnUse" viewBox="0 0 7.17 7.17"><rect class="cls-1" width="7.17" height="7.17"/><circle class="cls-2" cx="3.59" cy="3.59" r="0.58"/></pattern></defs><title>Plan de travail 1</title><rect class="cls-3" y="-97.1" width="1441.61" height="1019.32"/><path class="cls-4" d="M684.76,302.59s-37.65,79.58-142.42,49.71-62.63-205.61-.68-186.9S705.58,251.33,684.76,302.59Z"/><path class="cls-5" d="M466.83,476.7s59.76,47.58,151.35,47.63,218.14-48.77,188.61-115.17S717.18,260.41,604.41,289.67,399.78,433.48,466.83,476.7Z"/><text class="cls-6" transform="translate(144.98 450.11)"><tspan class="cls-7">D</tspan><tspan class="cls-8" x="105.07" y="0">E</tspan><tspan x="190.82" y="0">VEL</tspan><tspan class="cls-9" x="452.88" y="0">O</tspan><tspan class="cls-10" x="560.41" y="0">P</tspan><tspan x="647.54" y="0">EMEN</tspan><tspan class="cls-11" x="1047.13" y="0">T</tspan></text><rect class="cls-2" x="899.66" y="168.83" width="127.24" height="73.03" rx="2.83" transform="translate(-18.06 289.28) rotate(-16.92)"/><path class="cls-2" d="M934.46,252.28l-5.21,10.18a2.35,2.35,0,0,1-4.34-.39l-1.92-6.3Z"/><circle class="cls-5" cx="963.34" cy="205.24" r="17.55"/><polyline class="cls-12" points="956.39 213.01 965.93 213.77 968.29 193.95"/><line class="cls-13" x1="1055.19" y1="131.44" x2="1031.81" y2="166.18"/><line class="cls-13" x1="1040.99" y1="181.5" x2="1067.93" y2="173.31"/><line class="cls-13" x1="1044.05" y1="198.68" x2="1075.57" y2="205.56"/><line class="cls-13" x1="847.35" y1="194.67" x2="886.12" y2="210.5"/><line class="cls-13" x1="887.02" y1="228.34" x2="860.09" y2="236.54"/><line class="cls-13" x1="892.07" y1="244.92" x2="869.72" y2="268.19"/><polygon class="cls-14" points="418.45 252.98 481.83 219.58 506.79 284.82 418.45 252.98"/><polygon class="cls-5" points="380.73 592.88 356.09 543.42 359.94 540.76 359.28 532.17 383.43 520.6 389.69 526.55 432 508.7 437.08 517.56 454.09 560.16 380.73 592.88"/><polygon class="cls-2" points="370.25 546.69 447.52 513.01 454.09 560.16 380.73 592.88 370.25 546.69"/><line class="cls-15" x1="383.43" y1="550.87" x2="403.66" y2="543.42"/><line class="cls-15" x1="385.53" y1="557.54" x2="397.63" y2="552.94"/><path class="cls-16" d="M742.88,482.27s19.39,47.23,76.82,42.06c80.64-7.25,99.93-83.58,76.81-91s-144.73-32.07-153.65-16.41S742.88,482.27,742.88,482.27Z"/></svg>