<svg id="Calque_1" data-name="Calque 1" xmlns="http://www.w3.org/2000/svg" xmlns:xlink="http://www.w3.org/1999/xlink" viewBox="0 0 1440 824"><defs><style>.cls-1,.cls-11,.cls-12,.cls-6{fill:none;}.cls-13,.cls-2,.cls-8{fill:#fff;}.cls-3{fill:#5662ab;}.cls-4{fill:#e1e8f7;}.cls-5{fill:url(#Nouvelle_nuance_de_motif_2);}.cls-6{stroke:#fff;}.cls-6,.cls-7{stroke-miterlimit:10;}.cls-7{fill:#f18b90;}.cls-11,.cls-13,.cls-7{stroke:#f18b90;}.cls-8{font-size:154.22px;font-family:PlayfairDisplay-Bold, Playfair Display;font-weight:700;}.cls-9{letter-spacing:-0.01em;}.cls-10{letter-spacing:-0.02em;}.cls-11,.cls-12,.cls-13{stroke-linecap:round;stroke-linejoin:round;stroke-width:2px;}.cls-12{stroke:#f18b8f;}.cls-14{fill:url(#Nouvelle_nuance_de_motif_1);}</style><pattern id="Nouvelle_nuance_de_motif_2" data-name="Nouvelle nuance de motif 2" width="7.17" height="7.17" patternUnits="userSpaceOnUse" viewBox="0 0 7.17 7.17"><rect class="cls-1" width="7.17" height="7.17"/><circle class="cls-3" cx="3.59" cy="3.59" r="0.58"/></pattern><pattern id="Nouvelle_nuance_de_motif_1" data-name="Nouvelle nuance de motif 1" width="7.17" height="7.17" patternUnits="userSpaceOnUse" viewBox="0 0 7.17 7.17"><rect class="cls-1" width="7.17" height="7.17"/><circle class="cls-2" cx="3.59" cy="3.59" r="0.58"/></pattern></defs><title>Plan de travail 1</title><rect class="cls-4" x="-6.87" y="-97.57" width="1448.83" height="1020.05"/><path class="cls-5" d="M919.66,495.41s-74.06-12.76-57.13-46.84,83.36-31.54,98.6-22.69,5.92,40-12.28,56.88S919.66,495.41,919.66,495.41Z"/><path class="cls-6" d="M703,451.63s-104.14,79.93-21.13,109.92,131-40.88,132.71-71.58S741.46,422,703,451.63Z"/><path class="cls-7" d="M746.6,312.8c-40,26.75-145.81,132.33-30.78,189.28,145.62,72.11,206.85-43.27,216.63-59.31,4.9-8,42.6-136.35-101.53-155.79C830.92,287,793.81,281.2,746.6,312.8Z"/><text class="cls-8" transform="translate(454.49 463.45)"><tspan class="cls-9">E</tspan><tspan x="96.54" y="0">VEN</tspan><tspan class="cls-10" x="408.68" y="0">T</tspan></text><path class="cls-3" d="M575,306.58s-23.35-19.87-2.12-42.71Z"/><path class="cls-2" d="M628.31,133.12v96.5s-54.68,19.87-64.4,54.64c0,0-4.51-78.44-4.51-100.62C559.4,183.64,576.68,136.06,628.31,133.12Z"/><line class="cls-11" x1="600.1" y1="149.25" x2="603.79" y2="229.26"/><line class="cls-11" x1="609.57" y1="144.65" x2="612.34" y2="224.43"/><path class="cls-11" d="M569.43,253.39s21.18-17,24.42-17.47L592,153.85s-19.54,14-22.59,24.6Z"/><path class="cls-2" d="M987.74,291.85l61.73,51s60.41-22.78,73-93.29l-71.11-34.93S1032.63,272.27,987.74,291.85Z"/><line class="cls-12" x1="1053.18" y1="227.63" x2="1112.79" y2="260.4"/><line class="cls-12" x1="1023.38" y1="278.99" x2="1067.28" y2="316.96"/><line class="cls-12" x1="1013.5" y1="285.02" x2="1059.66" y2="325.83"/><line class="cls-12" x1="1007.26" y1="293.18" x2="1050.78" y2="332.9"/><path class="cls-12" d="M1033.79,265.14l47.94,38.66s19-19.09,21-30.42L1051,238.06A124.71,124.71,0,0,1,1033.79,265.14Z"/><path class="cls-2" d="M838.19,742l84.45,43.8s32.56-99.72,60.51-115.49l-77.32-36.18S867.21,648.46,838.19,742Z"/><path class="cls-13" d="M850.86,736.65l65.43,35.25s23.07-77.46,54.28-101.58l-65.21-28.75S855.05,685.16,850.86,736.65Z"/><ellipse class="cls-11" cx="919.51" cy="679.47" rx="17.66" ry="14.72"/><line class="cls-11" x1="876.95" y1="694.19" x2="922.99" y2="714.38"/><line class="cls-11" x1="873.13" y1="706.73" x2="914.54" y2="726.37"/><path class="cls-2" d="M353.86,589.3,408.05,511s41.16,42.73,90.68,45.49L451,625.76S415.1,633.37,353.86,589.3Z"/><line class="cls-11" x1="369.36" y1="587.35" x2="416.52" y2="529.66"/><line class="cls-11" x1="380.34" y1="593.8" x2="426.26" y2="538.17"/><line class="cls-11" x1="395.96" y1="602.94" x2="436.72" y2="547.27"/><line class="cls-11" x1="405.62" y1="606.1" x2="444.91" y2="550.89"/><line class="cls-11" x1="417.35" y1="610.22" x2="453.13" y2="557.19"/><line class="cls-11" x1="428.75" y1="614.17" x2="461.53" y2="562.36"/><line class="cls-11" x1="441.37" y1="615.58" x2="459.86" y2="586.05"/><path class="cls-14" d="M699,502.92s-48,34.49-61.91,5.3,20.29-53.23,23-54.84,34.59-26.33,61.61,12.38C731.05,479.15,699,502.92,699,502.92Z"/></svg>