<svg xmlns="http://www.w3.org/2000/svg" viewBox="0 0 596.07 571.22"><defs><style>.cls-1{fill:#f2706d;}.cls-2{fill:#dd5757;}.cls-3{fill:#fff;}.cls-4{fill:#49231d;}.cls-5{fill:#5b342b;}.cls-6{fill:#331310;}.cls-7{fill:#f4efe6;}</style></defs><title>asso6</title><g id="LOGO"><path class="cls-1" d="M621.2,529.37a131.85,131.85,0,0,1-13.34,53.27c-9.26,18.91-23.17,35.85-41.25,50.06q-3.81,3-7.88,5.83c-1.11.78-2.24,1.55-3.38,2.31h0c-.52.34-1.06.7-1.61,1s-1.24.8-1.85,1.2q-4.56,2.88-9.18,5.46c-31.81,17.73-64.38,24.61-77.71,26.82a205.13,205.13,0,0,1-33,2.5,241.83,241.83,0,0,1-37.86-3,213,213,0,0,1-57-17.1,189,189,0,0,1-21.19-11.57,178.51,178.51,0,0,1-15.17-10.7h0c-1.68-1.3-3.32-2.62-4.94-4-.6-.51-1.18-1-1.77-1.52h0a183.21,183.21,0,0,1-41.24-51.4q-4.74-8.68-8.69-18c-12.67-29.93-19.24-65-19.52-104.31a340.19,340.19,0,0,1,57.08-191.33c24.49-36.87,49.44-59.24,57.91-66.3a55.47,55.47,0,0,1,62.42-8h0a54.94,54.94,0,0,1,11.71,8.1,55.46,55.46,0,0,1-3.14,85l0,.06.11-.08a152.31,152.31,0,0,0-12.48,12A233.48,233.48,0,0,0,372,329.53a226.31,226.31,0,0,0-34.39,93.13c-10.65-1-28.46-1.6-36.87,3.88-12.43,8.11.4,1.13,5.62.76,3.66-.28,18.26,2.51,29.94,7.63q-.81,10.11-.74,20.47a198.82,198.82,0,0,0,3.75,38.86c-9.59,3.94-27.2,12.22-32.31,21.55-7.14,13,.89.79,5.3-2,3.1-1.95,17.35-6.42,30.09-7.42,5.27,17.24,13.58,30.68,24.89,40.18a74.06,74.06,0,0,0,14.76,9.6C375,564,366.72,575,366,583.43c-1.36,14.8,1.12.38,4.06-3.95,2-3,12.86-12.38,23.9-18.4,21.56,7.19,43.68,6.35,52.83,4.83l.53-.09h0c3.65,8.7,10.48,22.92,18.34,29.4,1.06-.18,2.13-.39,3.22-.59a18.87,18.87,0,0,1-2.34-2.74c-1.89-3-6.13-16.34-7.35-28.7,10.94-2.9,23.33-7.52,33.43-13.91,17.21-10.87,17.55-19.86,17.73-24.18,1.55-40.32-18-49.43-39.35-53.27a55.51,55.51,0,0,1-45.69-55.05h0a54,54,0,0,1,.54-7.25c.1-.71.21-1.41.34-2.12a55.4,55.4,0,0,1,5.12-15.32h0a55.52,55.52,0,0,1,59.3-29.46c24,4.31,45.17,12.59,63.15,24.27l0,0C598.75,416.14,623.61,466.66,621.2,529.37Z" transform="translate(-151.97 -164.39)"/><path class="cls-2" d="M621.2,529.37a131.85,131.85,0,0,1-13.34,53.27c-9.26,18.91-23.17,35.85-41.25,50.06q-3.81,3-7.88,5.83c-1.56-6.53.37-13.77,6.82-21.8C616.74,553,587.21,472.3,587.21,444.2c0-27.66-32.44-56.41-33.46-57.3C598.75,416.14,623.61,466.66,621.2,529.37Z" transform="translate(-151.97 -164.39)"/><path class="cls-1" d="M468.74,211.12c-1.6,2.81-35.26-4.42-46-2-1.71.38-2.84,1-3.18,2-1,2.75-4.92,1.38-9.32-1.28a115.21,115.21,0,0,1-14.54-11.15l6.31-8.07h0c-.35-.42-11.13-13.18-19.72-23.73-9.49-11.66,54.08,21.19,62.18,25.35C456.08,198.21,470.61,207.83,468.74,211.12Z" transform="translate(-151.97 -164.39)"/><path class="cls-1" d="M430.38,414.23c-1.25,2.36-2.2,4-2.2,4l-2.91-1.43h0l-4.74-2.33s-8.74,11.18-16,20.12c-3.21,4-2.47-3.22-.32-13.61,3.12-15.12,9.22-37.06,10.41-41.39,2.89-10.51,8.26-24,11.26-23,2.36.76,2.41,25.17,5.4,35.54.76,2.66,1.72,4.4,3,4.57C438.64,397.24,433.56,408.16,430.38,414.23Z" transform="translate(-151.97 -164.39)"/><path class="cls-3" d="M468.52,597.19a18.82,18.82,0,0,1-2.9-2c1.06-.18,2.13-.39,3.22-.59C473,598.77,479.12,603,468.52,597.19Z" transform="translate(-151.97 -164.39)"/><path class="cls-4" d="M301.19,630.63q-4.72,52.43-9.47,104.85-69.83-6.3-139.17-18.24a26.92,26.92,0,0,0-.37-7.16c-1.84-7.43,8.73-48.6,9.67-55.86s3.43-25,3.13-29.89c-.17-2.72,2-7.43,4-11.08Q234.82,624.64,301.19,630.63Z" transform="translate(-151.97 -164.39)"/><path class="cls-4" d="M736.77,650.72c1.38,9.35.67,31,2.2,40,.83,4.85,5,15.64,9.06,25.91q-71.64,12.48-144,19-4.68-52.44-9.38-104.86,67.26-6,134-17.6c.71,6,2,14.88,3.74,19.15C735.28,639.06,735.42,641.36,736.77,650.72Z" transform="translate(-151.97 -164.39)"/><path class="cls-5" d="M682.93,679.67l-.84.11q-19.43,2.7-38.88,5l-5.55.63-3.31.35c-2.5.29-5,.57-7.52.82-2.25.24-4.5.48-6.76.7-1.1.12-2.18.23-3.27.33-2.32.24-4.64.46-7,.68l-7,.65c-1,.1-2,.19-2.92.26h0q-44.71,4-89.54,5.64c-22.18-1.43-43.79-2.71-48.82-2-9.94,1.61-58.47-5.69-66.29-6.17-7.87-.28-23,3.76-50.73,2.46-15.64-.8-9.9,1.44-20.55,2.28q-14-1-28.07-2.31l-3.49-.32c-5.7-.52-11.42-1.07-17.12-1.66l-6.54-.69q-7.75-.82-15.5-1.73a5,5,0,0,1-.66-.08l-7.46-.88c-3-.34-5.9-.7-8.84-1.08l-6.88-.9c-2.63-.33-5.25-.68-7.86-1s-5.24-.7-7.86-1.08l-7.12-1c-.73-.09-1.47-.2-2.2-.33l-6.39-.93q4.33-29,8.66-58,3.43-23,6.88-46.1,19.59,2.92,39.23,5.35,45.09,5.58,90.35,8.6c4.12,2.61,11.16,6.43,18.14,7.52,10.92,1.69,21-1.16,31.36-.79s45.7,2.09,53.3,3.38c3,.58,10.65-.44,19.7-2,1.06-.18,2.13-.39,3.22-.59,7.42-1.38,15.47-3.07,22.45-4.55q58.38-1.58,116.57-7.44,30.3-3,60.53-7.24,3.21,23.08,6.44,46.17Q678.88,650.61,682.93,679.67Z" transform="translate(-151.97 -164.39)"/><path class="cls-6" d="M198,677.33q45.38,30.34,93.71,58.16l4.2-46.44Q246.84,684.61,198,677.33Z" transform="translate(-151.97 -164.39)"/><path class="cls-6" d="M697.83,677.53q-45.39,30.32-93.76,58.08-2.07-23.22-4.15-46.44Q649,684.78,697.83,677.53Z" transform="translate(-151.97 -164.39)"/><path class="cls-7" d="M348.71,638.67l-9,.3a38.62,38.62,0,0,1-1.35,6.87,5,5,0,0,1-2.13,3,7.23,7.23,0,0,1-4,.61,2.63,2.63,0,0,1-1.95-.81,3.37,3.37,0,0,1-.43-2.27q.93-13,2.35-23.06A2.71,2.71,0,0,1,333.7,621a13.35,13.35,0,0,1,4.86-.72c.4-2.18.8-4.35,1.2-6.54-1.2,0-3.26-.11-6.2-.22s-5.61-.27-8-.45c-3.68-.29-7.37-.58-11-.9-.31,1.68-.64,3.34-1,5l.54,1,1.8.08a2.23,2.23,0,0,1,1.86.82,5.19,5.19,0,0,1,.27,2.79q-.92,11.35-1.83,22.7a14.47,14.47,0,0,1-.22,1.67,5.33,5.33,0,0,1-1.06,2.52,5.45,5.45,0,0,1-3.75,1.35c-.39,2-.77,4.08-1.16,6.13.86,0,2.81,0,5.86.07s6.06.2,9.07.42c4.06.31,8.13.68,12.23,1.08l.34,0,8.12.8c.39-.34.76-.67,1.13-1,.52-3.87,1.07-7.58,1.63-11.1s1-5.77,1.14-6.75C349.24,639.37,349,639,348.71,638.67Z" transform="translate(-151.97 -164.39)"/><path class="cls-7" d="M357.73,616.28a5.23,5.23,0,0,0-4.12-2.43,7.44,7.44,0,0,0-3.82.92,16,16,0,0,0-4.08,3.05c0,.32,0,.63-.07.93a8.45,8.45,0,0,1,2.17,2.85,6.71,6.71,0,0,1,.7,3.35,8.43,8.43,0,0,1-1,3.34,10.39,10.39,0,0,1-2.38,3c.08.53.15,1.08.23,1.63l4.45,2.5a28.5,28.5,0,0,0,6.68-6.83,14.14,14.14,0,0,0,2.67-6.87A8.4,8.4,0,0,0,357.73,616.28Z" transform="translate(-151.97 -164.39)"/><path class="cls-7" d="M407.58,655a3.72,3.72,0,0,1-2.54-1.25,8,8,0,0,1-1.48-3.36c-.76-3.08-2.11-8.73-4-16.93s-3.11-13.73-3.71-16.53c-.33-.29-.66-.57-1-.84q-9.06.23-18.11.37-6.22,16.65-12.66,33.25a5.11,5.11,0,0,1-3.78,3.52c-.27,1.94-.53,3.88-.81,5.83l9.39.4c2.36.12,4.57.24,6.67.38s3.49.23,4.2.32c.26-1.86.52-3.71.79-5.57l-.53-.7-1.83-.08a4.38,4.38,0,0,1-1.79-.3,1.27,1.27,0,0,1-.34-1.13,10.5,10.5,0,0,1,.27-1.49c.29-1,.57-1.95.84-2.92,3-.1,4.92-.13,5.62-.1l5.39.33.33,2.65c0,.4.05.81.09,1.21a2.43,2.43,0,0,1-.3,1.31,1.47,1.47,0,0,1-1.07.49c-.54.1-1.61.21-3.21.32-.22,1.88-.43,3.76-.65,5.65l.55.63c.74,0,2.49,0,5.22,0s5.5.06,8.27.14c2.12.07,4.14.15,6.08.25s3.21.15,3.87.16c.23-1.77.47-3.53.7-5.3Zm-24.25-15.28-3.56-.13,3.75-11.79,1.53.06q.94,5.94,1.91,11.88C385.28,639.76,384.07,639.76,383.33,639.72Z" transform="translate(-151.97 -164.39)"/><path class="cls-7" d="M443.72,642.1a13.66,13.66,0,0,0-4.16-4,41.48,41.48,0,0,0-6-3l-1.45-.62a40.71,40.71,0,0,1-5.55-2.73,3.1,3.1,0,0,1-1.67-2.75,2.59,2.59,0,0,1,1.24-2.17,5.48,5.48,0,0,1,3.16-.8c3.37,0,5,1.62,5,4.77v1.07l.83.55c2.68-.15,5.37-.31,8.05-.49.23-2.52.58-4.94,1-7.27s.73-3.82.87-4.45l-.83-1.49c-.27-.08-1-.29-2.16-.6a41.67,41.67,0,0,0-4.67-.91,47.22,47.22,0,0,0-6.29-.45A32,32,0,0,0,420,618.44a17.12,17.12,0,0,0-7.55,4.9,11.79,11.79,0,0,0-2.83,7.52,10.07,10.07,0,0,0,2.71,7.64,24.35,24.35,0,0,0,7.68,5.11c.92.41,1.84.84,2.78,1.25a36.87,36.87,0,0,1,5.41,2.68,3.22,3.22,0,0,1,1.73,2.75,2.31,2.31,0,0,1-1.26,2,6.55,6.55,0,0,1-3.41.68,6.06,6.06,0,0,1-4.62-1.71c-1-1.12-1.48-2.88-1.44-5.25l-8.83.42q-.21,2.76-.86,6.39c-.44,2.41-.72,4-.89,4.69l.83,1.23a12.54,12.54,0,0,0,2,.9,35,35,0,0,0,5.08,1.51,32.32,32.32,0,0,0,6.78.76A36.06,36.06,0,0,0,435,660.38a16.74,16.74,0,0,0,7.68-4.81,11.26,11.26,0,0,0,2.68-7.53A10.11,10.11,0,0,0,443.72,642.1Z" transform="translate(-151.97 -164.39)"/><path class="cls-7" d="M482.18,641.76a13.57,13.57,0,0,0-4.26-3.86,40.32,40.32,0,0,0-6.09-2.83l-1.47-.58a45.45,45.45,0,0,1-5.62-2.6,3.15,3.15,0,0,1-1.73-2.72,2.62,2.62,0,0,1,1.2-2.2,5.49,5.49,0,0,1,3.13-.88c3.37,0,5.07,1.51,5.13,4.66,0,.36,0,.71,0,1.07.28.18.55.36.84.52l8-.67c.18-2.51.46-4.95.85-7.3s.64-3.83.77-4.46c-.29-.48-.56-1-.85-1.46-.28-.08-1-.27-2.19-.56a38.9,38.9,0,0,0-4.68-.8,48.5,48.5,0,0,0-6.3-.31,32.25,32.25,0,0,0-11.1,1.89,17.27,17.27,0,0,0-7.42,5.07,11.74,11.74,0,0,0-2.67,7.59,10.19,10.19,0,0,0,2.89,7.57,24.43,24.43,0,0,0,7.8,4.93c.94.4,1.87.8,2.81,1.18a38.54,38.54,0,0,1,5.48,2.55,3.24,3.24,0,0,1,1.79,2.72,2.28,2.28,0,0,1-1.21,2,6.68,6.68,0,0,1-3.4.77,6,6,0,0,1-4.65-1.61c-1-1.1-1.56-2.83-1.57-5.22-2.94.22-5.88.44-8.82.63-.1,1.84-.33,4-.7,6.41s-.64,4-.77,4.71c.27.41.56.81.83,1.22a17.08,17.08,0,0,0,2,.84,33.68,33.68,0,0,0,11.9,2,35.62,35.62,0,0,0,11.74-1.81,16.62,16.62,0,0,0,7.57-5,11.39,11.39,0,0,0,2.52-7.6A10.2,10.2,0,0,0,482.18,641.76Z" transform="translate(-151.97 -164.39)"/><path class="cls-7" d="M529.45,636.4c-.34-7.08-2.35-12.34-6-15.8s-8.8-5-15.57-4.79c-7.28.28-12.78,2.45-16.53,6.56s-5.58,10-5.4,17.49q.22,10.57,5.76,16.06c3.68,3.66,8.95,5.39,15.78,5.14,7.4-.26,13-2.55,16.81-6.84S529.82,644,529.45,636.4Zm-16.69,13.45a4.44,4.44,0,0,1-4.2,2.69,4.48,4.48,0,0,1-3.71-1.49,11.28,11.28,0,0,1-2.1-5.16,61.93,61.93,0,0,1-.9-9.77q-.21-5.93.93-8.42a4.24,4.24,0,0,1,4-2.61,4.64,4.64,0,0,1,3.76,1.46,10.56,10.56,0,0,1,2.13,5.07,62,62,0,0,1,1,9.74Q513.92,647.27,512.76,649.85Z" transform="translate(-151.97 -164.39)"/><path class="cls-7" d="M573.27,642.91a11.82,11.82,0,0,0-3.75-8.39,9.75,9.75,0,0,0-2.91-1.82,12.67,12.67,0,0,0-5.62-.8c-1,.37-1.88.75-2.73,1.13-.42.18-.82.37-1.2.56-.15-.23-.31-.48-.47-.71a20.79,20.79,0,0,1,2.06-2.73,36.25,36.25,0,0,1,10.29-7.73c-.82-1.76-1.65-3.51-2.47-5.29l-.92-.4a37.23,37.23,0,0,0-12.48,6.42,31.12,31.12,0,0,0-8.39,9.87,21.41,21.41,0,0,0-2.63,11.42,19.41,19.41,0,0,0,.65,4.11,13.53,13.53,0,0,0,4,6.59c2.85,2.56,6.53,3.68,11,3.39,5.12-.34,9.09-1.91,11.88-4.71S573.61,647.39,573.27,642.91ZM561,649.26a3.49,3.49,0,0,1-2.85,1.35,3.33,3.33,0,0,1-3.09-1.49,9.56,9.56,0,0,1-1.32-4.78c0-.59,0-1.4,0-2.45v-.24a17.09,17.09,0,0,1,1.61-.8h0a7.08,7.08,0,0,1,2.22-.59q3.7-.25,4.08,5.26A6.19,6.19,0,0,1,561,649.26Z" transform="translate(-151.97 -164.39)"/><path class="cls-2" d="M422.71,209.16a55.46,55.46,0,0,1-12.16,74.6l0,.06.11-.08a152.31,152.31,0,0,0-12.48,12c8.71-22.56,17.81-50.66,18.59-59.42s-4.36-18.84-6.6-26.52c-1.21-4.1-1.58-7.55.21-9.8a4.87,4.87,0,0,1,3.27-1.32c12.85-1.54,55.05,12.4,55.05,12.4C467.14,213.93,433.48,206.7,422.71,209.16Z" transform="translate(-151.97 -164.39)"/><path class="cls-2" d="M425.27,416.78h0l-4.74-2.33s-8.74,11.18-16,20.12c-3.21,4-2.47-3.22-.32-13.61,5.11-8.07,11.31-16.26,15-15.33a17.27,17.27,0,0,1,6.65,3.9,44.32,44.32,0,0,1,4.57,4.71c1.79,2.13,2.92,3.81,2.92,3.81,0,.16,0,10.71,2.66,19.23a80.28,80.28,0,0,1,2.63,16A55.45,55.45,0,0,1,425.27,416.78Z" transform="translate(-151.97 -164.39)"/></g></svg>