<svg xmlns="http://www.w3.org/2000/svg" viewBox="0 0 1423.48 922.1"><defs><style>.cls-1,.cls-5,.cls-7,.cls-9{fill:none;}.cls-1,.cls-3{stroke:#c2e1db;stroke-miterlimit:10;}.cls-1,.cls-10,.cls-9{stroke-width:4px;}.cls-2{fill:#f6f8e0;}.cls-3{fill:#c2e1db;stroke-width:9px;}.cls-10,.cls-4,.cls-6,.cls-8{fill:#213a8f;}.cls-10,.cls-4,.cls-5,.cls-6,.cls-7,.cls-8,.cls-9{stroke:#213a8f;stroke-linecap:round;stroke-linejoin:round;}.cls-4{stroke-width:8px;}.cls-5{stroke-width:12px;}.cls-6{stroke-width:2px;}.cls-7,.cls-8{stroke-width:5px;}</style></defs><title>Fichier 3</title><g id="Calque_2" data-name="Calque 2"><g id="Calque_1-2" data-name="Calque 1"><path class="cls-1" d="M703.07,386.75S407.21,1011,899.92,908.79s466-360.34,334.62-400.87S899.57,230.37,703.07,386.75Z"/><path class="cls-2" d="M777.7,815.35S968.91,890.77,1101.33,664s-18.4-491.46-244.08-516.75-549.81,184-495.81,383.3S777.7,815.35,777.7,815.35Z"/><path class="cls-3" d="M350.93,438.79v192a12,12,0,0,0,14.43,12C418.23,631.62,574.59,603,733.9,604.4,803.11,605,902,610.2,1006,641a12.06,12.06,0,0,0,15.65-11.43V448.71c0-5.61-325.08,154.3-325.08,154.3S350.93,433.55,350.93,438.79Z"/><path class="cls-4" d="M673.87,96.46,183.4,311.26c-24.4,10.68-24.26,45.34.22,55.83l167.31,71.7L673.47,592a53.85,53.85,0,0,0,46.21,0l464.25-220.36c23.39-11.1,23.1-44.49-.48-55.19L698.64,96.62A30.37,30.37,0,0,0,673.87,96.46Z"/><line class="cls-5" x1="1117.2" y1="292.55" x2="1117.2" y2="458.86"/><circle class="cls-6" cx="1116.19" cy="471.51" r="17.12"/><polygon class="cls-6" points="1107.93 483.62 1110.67 500.68 1120.76 500.68 1123.84 483.62 1107.93 483.62"/><path class="cls-6" d="M1110.67,500.67l-8,15.61v72.24s6.27,7.67,13.52,7.67,13.57-9,13.57-9l-3.16-71.34-5.84-15.16Z"/><path class="cls-7" d="M66.48,540.82S77.67,794,376.88,869.93"/><path class="cls-7" d="M81.77,613.3S84.9,560,110.22,563.75,81.77,613.3,81.77,613.3Z"/><path class="cls-7" d="M76.36,595.32S-1.16,522,2.64,556.15,76.36,595.32,76.36,595.32Z"/><path class="cls-8" d="M92.93,643S31.74,580.26,33,603,92.93,643,92.93,643Z"/><path class="cls-7" d="M102.12,662.88s-12.68-50.26,18.43-54.23S102.12,662.88,102.12,662.88Z"/><path class="cls-7" d="M110.21,678.24s-30.38-2.73-33.85-12S96.1,655,110.21,678.24Z"/><path class="cls-7" d="M124.32,701.47s-8.4-39.86,6.5-50.45S145.3,681.1,124.32,701.47Z"/><path class="cls-7" d="M130.27,710.21S73.55,666.24,63,698,130.27,710.21,130.27,710.21Z"/><path class="cls-7" d="M160.41,747.64S124.7,751,122,737.73,139.66,726.84,160.41,747.64Z"/><path class="cls-7" d="M144.38,698.68s-9.51,14.3-3.23,26.23S149.65,722,144.38,698.68Z"/><path class="cls-7" d="M179.14,766.55s-22.18-47.06,0-65.08S179.14,766.55,179.14,766.55Z"/><path class="cls-8" d="M195.47,781S123,741,139,770.17,195.47,781,195.47,781Z"/><path class="cls-7" d="M227.78,805.27s-33.75-9.29-44.34,4S211.88,828.45,227.78,805.27Z"/><path class="cls-7" d="M280,835.14s-81.33-8-58.82,14.46S280,835.14,280,835.14Z"/><path class="cls-8" d="M248.61,818.39s-22.83-20.42-20.83-37S256.19,789.16,248.61,818.39Z"/><path class="cls-7" d="M204.71,786.68s-13.1-11.29-9.24-27.14S205.49,771.26,204.71,786.68Z"/><path class="cls-8" d="M68.1,555.92S57,500,85.43,500.16C104.93,500.27,68.1,555.92,68.1,555.92Z"/><path class="cls-7" d="M288.83,839.3s-36.06-19.48-24.7-48.78S288.83,839.3,288.83,839.3Z"/><path class="cls-7" d="M302.58,845.31s-11.19-17.71,0-21.9S302.58,845.31,302.58,845.31Z"/><path class="cls-7" d="M317.33,851.21s-54-6.27-42,12.87S317.33,851.21,317.33,851.21Z"/><path class="cls-9" d="M1421.48,402.42s-45.62-136.35-124.07-250.5c-35.25-51.29-77.14-98.1-124.49-126"/><path class="cls-9" d="M1244,84.66s-52.62-33.08-56-11.48S1244,84.66,1244,84.66Z"/><path class="cls-9" d="M1213.3,50.68s11.62-26.56-10-42.89S1213.3,50.68,1213.3,50.68Z"/><path class="cls-9" d="M1203.74,47.59s-39.19,26.07-61.91,2.84S1165.1,10.75,1203.74,47.59Z"/><path class="cls-10" d="M1263.07,103.84s-44.21-56.79-27.3-57.81S1263.07,103.84,1263.07,103.84Z"/><path class="cls-10" d="M1194.09,39.85S1140.27,3.08,1166.88,2,1194.09,39.85,1194.09,39.85Z"/><path class="cls-9" d="M1271,116.13S1220.11,88,1218.25,98.49,1271,116.13,1271,116.13Z"/><path class="cls-10" d="M1314.64,170.19s.41-71.42-24.15-72.46S1314.64,170.19,1314.64,170.19Z"/><path class="cls-9" d="M1317,181.93s-68.73-73.94-80.65-44.63S1317,181.93,1317,181.93Z"/><path class="cls-9" d="M1324,193.42s-16.34-76.5,4.38-56.81S1324,193.42,1324,193.42Z"/><path class="cls-9" d="M1340.57,222s-48.81-50.65-61.51-32.5S1340.57,222,1340.57,222Z"/><path class="cls-9" d="M1343.85,228s-16.16-87.71,9.5-68.6S1343.85,228,1343.85,228Z"/><path class="cls-10" d="M1353.17,245.43s-36-34.72-30.22-10.57S1353.17,245.43,1353.17,245.43Z"/><path class="cls-10" d="M1367.81,269.93s23.38-72.75,3.3-67.42S1367.81,269.93,1367.81,269.93Z"/><path class="cls-9" d="M1376.25,292.13s-36.8-44.82-44.66-30.57S1376.25,292.13,1376.25,292.13Z"/><path class="cls-9" d="M1383.93,308.86s33-36.81,10.86-54.23S1383.93,308.86,1383.93,308.86Z"/><path class="cls-9" d="M1396.68,338.17s-34.83-49.59-38.28-41S1396.68,338.17,1396.68,338.17Z"/><path class="cls-9" d="M1404.69,357.69s22.7-29.46,4.74-47.43S1404.69,357.69,1404.69,357.69Z"/></g></g></svg>