<svg xmlns="http://www.w3.org/2000/svg" viewBox="0 0 1243.53 2212.17"><defs><style>.cls-1{fill:#c2e1db;stroke:#c2e1db;}.cls-1,.cls-12,.cls-6,.cls-8{stroke-linecap:round;}.cls-1,.cls-10,.cls-11,.cls-12,.cls-13,.cls-2,.cls-4,.cls-6,.cls-8{stroke-linejoin:round;}.cls-1,.cls-10,.cls-2,.cls-4,.cls-6,.cls-8,.cls-9{stroke-width:4px;}.cls-2{fill:#fce8ea;}.cls-11,.cls-2{stroke:#fce8ea;}.cls-10,.cls-13,.cls-3,.cls-9{fill:#fff;}.cls-4,.cls-7{fill:#e1e8f7;}.cls-4{stroke:#e1e8f7;}.cls-5,.cls-6,.cls-8{fill:#5562ab;}.cls-10,.cls-12,.cls-13,.cls-6,.cls-9{stroke:#fff;}.cls-8{stroke:#5562ab;}.cls-9{stroke-miterlimit:10;}.cls-11,.cls-12{fill:none;}.cls-11,.cls-12,.cls-13{stroke-width:6px;}</style></defs><title>Fichier 1</title><g id="Calque_2" data-name="Calque 2"><g id="Calque_2-2" data-name="Calque 2"><path class="cls-1" d="M743.7,1980.19s10.92,6.47,28.76,6.15c-45.11,13.17-112.53,37-89.75,56.05,33.37,28,116-28.77,116-28.77S714.5,2080,722.37,2117.48s64.93-34.41,64.93-34.41l.48-1c-1.23,8-12.42,86.25,20.08,65.72,34.24-21.64,24.92-123.23,24.92-123.23s15.52,93.73,60.67,95.31c30.82,1.08.95-59.34-21.12-97.81,12.46,11.74,25.18,14.16,25.18,14.16,60.11.48-21.76-85.91-40.18-104.61l.11-.24h-.33c-2.1-2.12-3.31-3.31-3.31-3.31l-1.53,3.54C825,1933,700.48,1941.74,743.7,1980.19Z"/><path class="cls-1" d="M955.05,1614.53s11.67-5,21.91-19.62c-15.91,44.22-36.39,112.71-7.53,105.55,42.27-10.5,45.05-110.72,45.05-110.72s4,107.16,39,122.87,10.41-72.74,10.41-72.74l-.56-1c5.79,5.73,62.41,60.82,65,22.47,2.67-40.42-84.94-92.7-84.94-92.7s84.9,42.64,112.77,7.07c19-24.27-47.41-35.7-91.5-40.51,16.82-3.16,26.27-12,26.27-12,35.78-48.3-82.25-33-108.21-29.11l-.13-.23s-.06.1-.19.28c-3,.44-4.63.72-4.63.72l2,3.32C964.77,1521.05,898.53,1626.83,955.05,1614.53Z"/><path class="cls-1" d="M903.7,1917.81s11.67-5,21.91-19.62c-15.91,44.22-36.39,112.71-7.53,105.55,42.27-10.5,45-110.72,45-110.72s4,107.15,39,122.87,10.41-72.75,10.41-72.75l-.56-1c5.78,5.73,62.41,60.82,65,22.46,2.67-40.41-84.94-92.69-84.94-92.69s84.9,42.63,112.77,7.07c19-24.27-47.41-35.7-91.5-40.51,16.82-3.16,26.27-12,26.27-12,35.78-48.3-82.25-33-108.21-29.11l-.13-.23-.19.27c-3,.45-4.63.73-4.63.73l2,3.32C913.42,1824.33,847.18,1930.11,903.7,1917.81Z"/><path class="cls-2" d="M851.35,1713c37.47-22.25,135.48-76.49,181.68-64.54,21.76,5.63,22.69,49.54-57.72,75.68,0,0,142.49-68.28,161.07-17.73,0,0,8.75,23.42-53.9,43.34,0,0,113.14,22.48,125.37,68.14,2.68,10-3.23,13.49-3.23,13.49-27.88,38.67-142.57-6.08-142.57-6.08,43.48,49.32,23.92,64.9,23.92,64.9-41.94,33.78-129-98.08-129-98.08,55.49,63.79,33.06,92.13,10.55,94.59-33.4,3.65-99.38-107.73-122.74-149.24"/><path class="cls-2" d="M840.5,1863.47c42.48-1.45,151.81-1.69,186.61,31.87,16.39,15.8-2.39,55.66-83.9,39.38,0,0,154.23,9.15,147.81,63.69,0,0-2.85,25.35-66.16,12.26,0,0,88.25,76.09,78.49,123.1-2.14,10.33-8.82,10.51-8.82,10.51-41.47,20.92-121.12-75.91-121.12-75.91,15.76,65.75-8.19,70.06-8.19,70.06C913.72,2148,897,1986.68,897,1986.68c19.74,84.66-12.38,99-33,90.09-30.64-13.22-38.25-145.78-40-194.58"/><path class="cls-1" d="M222.9,1598.35s-11.66-5-21.9-19.63c15.91,44.22,36.38,112.72,7.53,105.55-42.28-10.5-45.05-110.71-45.05-110.71s-4,107.15-39,122.87-10.41-72.75-10.41-72.75l.56-1c-5.78,5.73-62.41,60.82-64.94,22.46-2.68-40.42,84.93-92.7,84.93-92.7s-84.9,42.64-112.76,7.08c-19-24.28,47.4-35.7,91.5-40.51-16.83-3.17-26.28-12-26.28-12-35.78-48.31,82.25-33,108.22-29.12l.12-.23.19.28c2.95.44,4.63.73,4.63.73l-2,3.31C213.18,1504.87,279.42,1610.65,222.9,1598.35Z"/><path class="cls-1" d="M170.73,1289.87s4.31-11.33,17.84-21.7c-41.55,17-106.09,39.26-100.42,11.44,8.32-40.76,103.84-47.45,103.84-47.45s-102.41.45-118.82-32.26,69-12.86,69-12.86l1,.49c-5.7-5.29-60.55-57.11-24.05-61.07,38.46-4.18,91.88,77.32,91.88,77.32s-44.11-79.3-11.29-107.33c22.4-19.12,36,43.8,42.34,85.69,2.34-16.18,10.41-25.56,10.41-25.56,44.66-36.09,34.8,77.17,32.14,102.1l.23.11-.26.19c-.3,2.83-.51,4.45-.51,4.45l-3.24-1.75C259.54,1276.83,161.27,1344.3,170.73,1289.87Z"/><path class="cls-2" d="M343.07,1422.21c-38.2,16.54-137.61,56.08-179.94,39.17-19.93-8-15.5-49.68,63.84-64.72,0,0-143.25,47.45-154.74-2.68,0,0-5.47-23.25,56.31-34.55,0,0-104.48-35-110.54-79.72-1.33-9.82,4.69-12.39,4.69-12.39,31.09-33.26,134.33,23,134.33,23-35.22-52-14.81-64.39-14.81-64.39C186,1199,252.56,1334.47,252.56,1334.47c-44.86-67.15-20.19-91.29,1.44-90.89,32.08.58,81.12,114.08,98.24,156.24"/><path class="cls-1" d="M997.48,1297.53s4.17,11.39.73,28.08c20.29-40,54.46-99.15,68.39-74.41,20.42,36.25-47.39,103.86-47.39,103.86s77.1-67.41,110.92-53.43-43.72,54.91-43.72,54.91l-1.06.27c7.77.26,83.16,3.5,58.17,30.4-26.33,28.34-120.07,1.74-120.07,1.74s85.27,31,78.82,73.71c-4.4,29.12-55.87-9.54-88.11-37,8.82,13.76,8.87,26.13,8.87,26.13-10.11,56.52-76.84-35.52-91.15-56.1l-.25.06s0-.11.07-.31c-1.63-2.34-2.53-3.7-2.53-3.7l3.6-.8C938.91,1365.55,969,1250.2,997.48,1297.53Z"/><path class="cls-2" d="M860.54,1575.94c35.79,21.26,129.4,73.06,173.53,61.65,20.78-5.38,21.67-47.31-55.13-72.28,0,0,136.09,65.21,153.84,16.93,0,0,8.36-22.37-51.49-41.4,0,0,108.07-21.47,119.75-65.08,2.56-9.57-3.08-12.88-3.08-12.88-26.63-36.93-136.17,5.81-136.17,5.81,41.52-47.11,22.84-62,22.84-62-40.06-32.26-123.2,93.67-123.2,93.67,53-60.92,31.59-88,10.08-90.34-31.89-3.49-94.91,102.9-117.23,142.55"/><path class="cls-2" d="M897.52,1044.74c24.91-34.43,86.14-125,77.72-172.62-4-22.42-47.52-29.08-79.51,47.64,0,0,78.49-133.08,29.66-158.2,0,0-22.62-11.78-47.1,48.06,0,0-13.88-115.7-58.33-133.84-9.76-4-13.65,1.45-13.65,1.45C765.8,700,801.69,820.1,801.69,820.1c-45.75-49.77-62.7-32.31-62.7-32.31-36.7,37.38,87.81,141.35,87.81,141.35-59.23-63.64-89.07-45-93.2-22.87-6.12,32.8,99.62,113.1,139.12,141.81"/><path class="cls-1" d="M769.87,821.25s-12.4.77-26.3,11.23c27.91-36.87,67.24-95.42,38.08-98.53-42.72-4.56-74.77,90.5-74.77,90.5s27.69-104.07-.46-131.22-31.14,66.11-31.14,66.11l.23,1.15c-3.73-7.49-40.64-79.86-54.29-44-14.38,37.81,52.4,118.2,52.4,118.2S606.54,764.48,570,788.92c-25,16.68,33.95,50.6,73.88,70.46-16.7-2.78-28.17,2.43-28.17,2.43-47.74,33.91,67.43,60.06,92.91,65.32l0,.27.26-.2c2.9.59,4.55.9,4.55.9l-.87-3.86C733.29,907.46,826.48,829,769.87,821.25Z"/><path class="cls-2" d="M344.38,1003.84C302.27,998,194.5,979.65,165.92,940.66c-13.46-18.37,11.85-54.45,89.39-24.52,0,0-150.42-35.28-134.81-87.94,0,0,7.13-24.49,67.29-.81,0,0-74-90-56.38-134.67,3.87-9.81,10.48-8.86,10.48-8.86,44.43-13.55,106.42,95.43,106.42,95.43-4.33-67.46,20-67.64,20-67.64,52.39-.67,41.43,161.17,41.43,161.17-5-86.79,29.07-95.46,47.9-83.15,27.94,18.25,12.86,150.17,6.29,198.56"/><path class="cls-1" d="M162.11,988.94s4.51-11.87,18.68-22.71c-43.51,17.76-111.08,41.1-105.14,12,8.71-42.68,108.72-49.68,108.72-49.68S77.14,929,60,894.74s72.24-13.47,72.24-13.47l1,.52c-6-5.54-63.4-59.79-25.19-63.94,40.28-4.37,96.2,80.95,96.2,80.95s-46.18-83-11.82-112.36c23.45-20,37.67,45.85,44.33,89.71,2.45-16.95,10.9-26.76,10.9-26.76,46.76-37.79,36.43,80.79,33.65,106.89l.24.12-.27.2c-.32,3-.53,4.65-.53,4.65l-3.4-1.82C255.1,975.29,152.2,1045.93,162.11,988.94Z"/><path class="cls-2" d="M342.55,1127.49c-40,17.33-144.08,58.72-188.4,41-20.87-8.34-16.23-52,66.84-67.76,0,0-150,49.68-162-2.81,0,0-5.72-24.34,59-36.17,0,0-109.4-36.63-115.74-83.47-1.39-10.28,4.91-13,4.91-13,32.56-34.82,140.65,24.09,140.65,24.09C110.88,935,132.25,922,132.25,922c45.89-28.19,115.53,113.62,115.53,113.62-47-70.3-21.13-95.57,1.51-95.16,33.59.61,84.94,119.45,102.86,163.59"/><path class="cls-2" d="M520.3,1001.17c38-19,134.13-71.12,148.63-117.24,6.84-21.72-28.72-47.74-92.52,5.54,0,0,131.07-81.8,99.35-126.63,0,0-14.62-20.89-64,20.88,0,0,41.11-109,10.05-145.65-6.81-8-12.77-5-12.77-5C562.64,634.53,539,757.66,539,757.66c-17.61-65.28-40.7-57.61-40.7-57.61C448.49,716.26,510.94,866,510.94,866c-23.16-83.79-58.24-81-72.11-63.31C418.25,828.92,475,949,496.76,992.68"/><path class="cls-1" d="M507.46,817.77s-12.34,1.48-25.62,12.72c25.75-38.41,61.64-99.13,32.35-100.56-42.91-2.09-69.44,94.66-69.44,94.66s21.66-105.49-8-131-27.29,67.78-27.29,67.78l.3,1.14c-4.16-7.27-45.17-77.39-56.73-40.79-12.19,38.57,59.1,115,59.1,115S341.13,770.49,306,797c-24,18.09,36.81,48.57,77.82,66.1-16.84-1.82-28,4-28,4-45.72,36.6,70.77,56.09,96.51,59.87l.06.27.25-.22c2.93.43,4.6.64,4.6.64l-1.09-3.8C475.9,905.94,564.42,822.27,507.46,817.77Z"/><path class="cls-1" d="M1047.71,947s4.36,11.92.76,29.4c21.25-41.92,57-103.81,71.61-77.91,21.37,38-49.63,108.75-49.63,108.75s80.73-70.58,116.14-56-45.77,57.49-45.77,57.49l-1.12.28c8.14.28,87.07,3.67,60.91,31.83-27.57,29.68-125.71,1.82-125.71,1.82s89.27,32.51,82.52,77.18c-4.61,30.49-58.5-10-92.25-38.76,9.24,14.41,9.28,27.36,9.28,27.36-10.58,59.17-80.44-37.2-95.43-58.74l-.25.06s0-.11.07-.32c-1.7-2.45-2.65-3.87-2.65-3.87l3.76-.85C986.38,1018.17,1017.87,897.41,1047.71,947Z"/><path class="cls-2" d="M884.34,1288.46C921.81,1310.71,1019.81,1365,1066,1353c21.77-5.63,22.69-49.54-57.71-75.68,0,0,142.48,68.27,161.06,17.73,0,0,8.76-23.42-53.9-43.34,0,0,113.15-22.48,125.37-68.15,2.69-10-3.23-13.48-3.23-13.48-27.88-38.67-142.56,6.08-142.56,6.08,43.47-49.32,23.91-64.9,23.91-64.9-41.94-33.78-129,98.07-129,98.07,55.49-63.78,33.07-92.12,10.55-94.58-33.39-3.65-99.37,107.73-122.74,149.24"/><path class="cls-1" d="M502.67,1919.93s10.91,6.47,28.75,6.15c-45.11,13.17-112.53,37-89.75,56.05,33.38,28,116-28.77,116-28.77s-84.23,66.36-76.36,103.86,64.93-34.41,64.93-34.41l.48-1c-1.22,8-12.41,86.25,20.08,65.72,34.25-21.64,24.92-123.23,24.92-123.23s15.53,93.73,60.68,95.31c30.82,1.08,1-59.33-21.13-97.81,12.46,11.74,25.19,14.16,25.19,14.16,60.11.49-21.76-85.91-40.18-104.61l.11-.24h-.33c-2.1-2.12-3.32-3.31-3.32-3.31l-1.52,3.54C584,1872.75,459.45,1881.48,502.67,1919.93Z"/><path class="cls-2" d="M637.42,1757c40.05,17.19,141.6,64.47,159.14,108.85,8.26,20.9-26.68,47.5-95.15-2.1,0,0,139.07,75,109.15,119.76,0,0-13.77,20.86-66.77-18.06,0,0,48.45,104.7,18.74,141.46-6.52,8.07-12.8,5.33-12.8,5.33-47.67.23-79-118.81-79-118.81-14.27,64.18-38.38,57.54-38.38,57.54-52-14,3.33-162,3.33-162-18.89,82.42-55,81-70.24,64.22-22.61-24.84,28.57-143.75,48.37-187.08"/><path class="cls-1" d="M234.29,1992.62s11.18,5.42,28.43,3.14c-42.43,18.4-105.44,50.08-81.57,67.11,35,25,109.59-42.1,109.59-42.1s-75.25,77.05-64.07,114.52,59.6-42.28,59.6-42.28l.37-1.12c-.43,8.36-3.83,89.53,25.67,65,31.1-25.87,12.43-128.69,12.43-128.69s23.93,94.1,67.79,90.79c29.94-2.27-4.71-60.76-29.74-97.67C376,2031.94,388.52,2033,388.52,2033c58.24-6.08-29.22-85.44-48.83-102.54l.08-.25-.32,0c-2.23-1.94-3.52-3-3.52-3l-1.14,3.79C308.5,1935.5,188.8,1958,234.29,1992.62Z"/><path class="cls-1" d="M1061.61,881.82s-9.84-7.6-27.18-8.9c45.29-9.33,113.45-27.44,93.58-49-29.12-31.58-115.89,18.78-115.89,18.78s89.42-60,86.15-99-67,29.19-67,29.19l-.59,1c2.13-8.1,22.08-86.85-11.83-68.87-35.73,19-38.51,123.42-38.51,123.42s-4.15-97-47.77-102.74c-29.77-3.91-7.82,60.43,9.12,101.69-10.72-13.11-22.78-16.74-22.78-16.74-58.26-6,11.11,89.61,26.81,110.36l-.14.23.33,0c1.78,2.36,2.83,3.69,2.83,3.69l1.89-3.48C977.28,922.53,1099.06,925,1061.61,881.82Z"/><path class="cls-2" d="M509.38,1836.85c26.18,33.48,90.75,121.71,84.11,169.6-3.13,22.55-46.41,30.83-81.24-44.63,0,0,83.41,130,35.55,157,0,0-22.16,12.62-48.86-46.26,0,0-9.55,116.13-53.3,135.93-9.6,4.34-13.69-.95-13.69-.95-41.32-21.2-9.94-142.59-9.94-142.59-43.87,51.44-61.46,34.63-61.46,34.63C322.48,2063.56,443,1955,443,1955c-56.81,65.8-87.32,48.28-92.28,26.33-7.34-32.55,95.33-116.74,133.73-146.91"/><path class="cls-1" d="M274.25,1851.62s-11.66-5-21.9-19.62c15.91,44.22,36.38,112.72,7.53,105.55-42.28-10.5-45-110.72-45-110.72s-4.05,107.16-39,122.87S165.42,1877,165.42,1877l.56-1c-5.78,5.73-62.41,60.82-64.94,22.47-2.67-40.42,84.93-92.7,84.93-92.7s-84.9,42.64-112.76,7.07c-19-24.27,47.4-35.7,91.5-40.51-16.83-3.16-26.28-12-26.28-12-35.78-48.3,82.26-33,108.22-29.11l.12-.23.19.28c2.95.44,4.63.72,4.63.72l-2,3.32C264.53,1758.15,330.77,1863.92,274.25,1851.62Z"/><path class="cls-2" d="M337.45,1797.29c-42.48-1.45-151.81-1.7-186.61,31.86-16.39,15.81,2.4,55.66,83.91,39.39,0,0-154.23,9.14-147.82,63.68,0,0,2.85,25.35,66.16,12.26,0,0-88.25,76.09-78.49,123.11,2.14,10.32,8.82,10.51,8.82,10.51,41.48,20.92,121.12-75.91,121.12-75.91-15.75,65.74,8.19,70.06,8.19,70.06,51.51,9.58,68.27-151.76,68.27-151.76-19.74,84.67,12.39,99,33.05,90.1,30.63-13.23,38.24-145.79,40-194.59"/><rect class="cls-3" x="134.93" y="800.71" width="940.82" height="1226.82" rx="28.35"/><rect class="cls-4" x="255.47" y="1054.22" width="407.48" height="446.67" rx="28.35"/><path class="cls-5" d="M1074.75,828.05a28.34,28.34,0,0,0-28.35-28.34H162.28a28.34,28.34,0,0,0-28.35,28.34v34.32h941.82Z"/><line class="cls-6" x1="274.4" y1="1116.76" x2="537.4" y2="1116.76"/><line class="cls-6" x1="274.4" y1="1141.31" x2="638.48" y2="1141.31"/><line class="cls-6" x1="275.36" y1="1185.37" x2="639.43" y2="1185.37"/><line class="cls-6" x1="276.31" y1="1210.29" x2="618.09" y2="1210.29"/><line class="cls-6" x1="275.36" y1="1232.33" x2="618.09" y2="1232.33"/><line class="cls-6" x1="276.31" y1="1257.14" x2="578.81" y2="1257.14"/><line class="cls-6" x1="275.36" y1="1277.85" x2="618.09" y2="1277.85"/><line class="cls-6" x1="276.31" y1="1300.84" x2="447.2" y2="1300.84"/><line class="cls-6" x1="275.36" y1="1329.28" x2="557.56" y2="1329.28"/><line class="cls-6" x1="276.31" y1="1354.09" x2="589.11" y2="1354.09"/><line class="cls-6" x1="275.36" y1="1374.04" x2="611.01" y2="1374.04"/><line class="cls-6" x1="276.31" y1="1402.34" x2="585.89" y2="1402.34"/><line class="cls-6" x1="275.36" y1="1425.77" x2="606.5" y2="1425.77"/><line class="cls-6" x1="276.31" y1="1451.98" x2="566.58" y2="1451.98"/><rect class="cls-7" x="175.47" y="896.04" width="842.81" height="81.2" rx="28.35"/><circle class="cls-8" cx="238.49" cy="936.61" r="23.38"/><circle class="cls-9" cx="328.49" cy="936.61" r="23.38"/><circle class="cls-1" cx="417.49" cy="937.61" r="23.38"/><polygon class="cls-4" points="218.46 1487.22 255.47 1480.9 255.47 1447.56 218.46 1487.22"/><line class="cls-6" x1="272.4" y1="1087.05" x2="472.9" y2="1087.05"/><rect class="cls-2" x="563.46" y="1553.22" width="407.48" height="331.78" rx="28.35" transform="translate(1534.4 3438.23) rotate(180)"/><line class="cls-6" x1="588.98" y1="1617.4" x2="787.48" y2="1617.4"/><line class="cls-6" x1="588.98" y1="1640.31" x2="953.05" y2="1640.31"/><line class="cls-6" x1="589.93" y1="1698.28" x2="872.14" y2="1698.28"/><line class="cls-6" x1="590.88" y1="1723.09" x2="903.69" y2="1723.09"/><line class="cls-6" x1="589.93" y1="1743.04" x2="925.58" y2="1743.04"/><line class="cls-6" x1="590.88" y1="1771.34" x2="900.47" y2="1771.34"/><line class="cls-6" x1="589.93" y1="1794.77" x2="921.07" y2="1794.77"/><line class="cls-6" x1="590.88" y1="1820.98" x2="881.15" y2="1820.98"/><polygon class="cls-2" points="1007.95 1866.22 970.94 1859.9 970.94 1826.56 1007.95 1866.22"/><line class="cls-6" x1="586.98" y1="1586.05" x2="787.48" y2="1586.05"/><rect class="cls-10" x="725.03" y="203.37" width="294.37" height="156.55" rx="28.35" transform="translate(105.9 -221.18) rotate(15.38)"/><rect class="cls-11" x="813.01" y="239.48" width="131.53" height="85.39" transform="translate(106.27 -222.9) rotate(15.38)"/><polygon class="cls-11" points="826.69 223.57 878.77 282.17 953.5 258.44 826.69 223.57"/><line class="cls-12" x1="1108.46" y1="273.39" x2="1054.56" y2="296.45"/><line class="cls-12" x1="1049.51" y1="326.54" x2="1129.97" y2="353.47"/><line class="cls-12" x1="1031.03" y1="364.45" x2="1078.06" y2="404.48"/><line class="cls-12" x1="670.46" y1="152.95" x2="704.99" y2="200.33"/><line class="cls-12" x1="693.95" y1="228.76" x2="611.03" y2="210.76"/><line class="cls-12" x1="690.45" y1="270.8" x2="629.56" y2="281.15"/><circle class="cls-13" cx="1017.95" cy="839.46" r="12.28"/><rect class="cls-1" x="153.25" y="42.02" width="227.77" height="121.13" rx="28.35" transform="matrix(-0.96, 0.27, -0.27, -0.96, 551.91, 130.66)"/><rect class="cls-12" x="211.18" y="69.95" width="101.77" height="66.07" transform="translate(542.05 132.81) rotate(164.62)"/><polygon class="cls-12" points="302.36 57.65 262.06 102.99 204.24 84.63 302.36 57.65"/><line class="cls-12" x1="84.34" y1="96.19" x2="126.05" y2="114.04"/><line class="cls-12" x1="129.95" y1="137.31" x2="67.7" y2="158.15"/><line class="cls-12" x1="144.26" y1="166.65" x2="107.87" y2="197.63"/><line class="cls-12" x1="423.24" y1="3" x2="396.52" y2="39.66"/><line class="cls-12" x1="405.07" y1="61.66" x2="469.22" y2="47.74"/><line class="cls-12" x1="407.78" y1="94.19" x2="454.89" y2="102.2"/></g></g></svg>